<svg width="259" height="68" viewBox="0 0 259 68" fill="none" xmlns="http://www.w3.org/2000/svg">
<path d="M19.0994 12.5455H13.2507V10.5703C13.2507 8.57599 14.0561 7.40625 16.4531 7.40625C17.4311 7.40625 18.4283 7.61719 19.0803 7.82812L20.5185 1.69176C19.5021 1.38494 17.2585 0.886361 14.7464 0.886361C9.20455 0.886361 5.08168 4.01207 5.08168 10.4169V12.5455H0.920455V18.6818H5.08168V42H13.2507V18.6818H19.0994V12.5455ZM31.4345 42.5561C35.7875 42.5561 38.6064 40.6577 40.0446 37.9155H40.2747V42H48.0218V22.1335C48.0218 15.1151 42.0772 12.1619 35.519 12.1619C28.4622 12.1619 23.8216 15.5369 22.6902 20.9062L30.2456 21.5199C30.8017 19.5639 32.5467 18.1257 35.4806 18.1257C38.2612 18.1257 39.8528 19.5256 39.8528 21.9418V22.0568C39.8528 23.9553 37.8393 24.2045 32.7193 24.7031C26.8897 25.2401 21.6547 27.196 21.6547 33.7734C21.6547 39.603 25.8159 42.5561 31.4345 42.5561ZM33.774 36.9183C31.2619 36.9183 29.4593 35.7486 29.4593 33.505C29.4593 31.2038 31.3578 30.0724 34.2342 29.6697C36.0176 29.4205 38.9324 28.9986 39.9103 28.3466V31.4723C39.9103 34.5597 37.3599 36.9183 33.774 36.9183ZM67.6678 42.5753C75.5108 42.5753 80.4391 37.973 80.8226 31.2038H73.1138C72.6344 34.3487 70.5634 36.1129 67.7637 36.1129C63.9476 36.1129 61.4739 32.9105 61.4739 27.2727C61.4739 21.7116 63.9668 18.5284 67.7637 18.5284C70.7552 18.5284 72.6728 20.5036 73.1138 23.4375H80.8226C80.4775 16.63 75.3191 12.1619 67.6294 12.1619C58.6934 12.1619 53.1706 18.3558 53.1706 27.3878C53.1706 36.343 58.5975 42.5753 67.6678 42.5753ZM99.4762 42.5753C106.763 42.5753 111.672 39.0277 112.823 33.5625L105.267 33.0639C104.443 35.3075 102.333 36.4773 99.6104 36.4773C95.5259 36.4773 92.9371 33.7734 92.9371 29.3821V29.3629H112.995V27.1193C112.995 17.1094 106.936 12.1619 99.1502 12.1619C90.4826 12.1619 84.864 18.3175 84.864 27.407C84.864 36.7457 90.4059 42.5753 99.4762 42.5753ZM92.9371 24.3004C93.1097 20.9446 95.6602 18.2599 99.2844 18.2599C102.832 18.2599 105.287 20.7912 105.306 24.3004H92.9371Z" fill="#1877F2"/>
<path d="M126.442 12.768L126.154 11.76C126.154 11.616 126.226 11.328 126.37 10.896C127.33 7.824 128.194 5.784 128.962 4.776C129.778 3.768 130.954 3.264 132.49 3.264C133.162 3.264 133.546 3.48 133.642 3.912C132.586 6.168 131.122 9.864 129.25 15H136.234C137.578 15 138.25 15.144 138.25 15.432C138.25 15.912 137.146 16.296 134.938 16.584C132.73 16.824 130.618 16.944 128.602 16.944C126.202 23.712 124.258 30.192 122.77 36.384C122.53 37.344 122.41 38.136 122.41 38.76C122.41 39.384 122.674 39.696 123.202 39.696C124.162 39.696 125.554 38.856 127.378 37.176C129.25 35.448 130.282 34.584 130.474 34.584C130.666 34.584 130.762 34.872 130.762 35.448C130.762 35.976 130.498 36.36 129.97 36.6C125.554 40.584 122.458 42.576 120.682 42.576C119.578 42.576 119.026 41.88 119.026 40.488C119.026 39.72 119.338 38.28 119.962 36.168C120.634 34.056 122.434 27.744 125.362 17.232C124.21 17.424 122.842 17.52 121.258 17.52C119.674 17.52 118.882 17.328 118.882 16.944C118.882 16.56 119.194 16.152 119.818 15.72C120.442 15.24 120.946 15 121.33 15H125.938L126.226 13.992C126.37 13.416 126.442 13.008 126.442 12.768ZM155.634 36.24C155.058 36.816 154.578 37.248 154.194 37.536C153.858 37.824 153.45 38.184 152.97 38.616C152.538 39 152.154 39.312 151.818 39.552C151.482 39.792 151.074 40.08 150.594 40.416C150.114 40.752 149.682 40.992 149.298 41.136C148.338 41.616 147.618 41.856 147.138 41.856C146.13 41.856 145.53 41.256 145.338 40.056C145.338 38.04 146.13 34.32 147.714 28.896C141.282 37.776 136.674 42.216 133.89 42.216C132.738 42.216 132.162 41.232 132.162 39.264C132.162 37.296 132.81 34.44 134.106 30.696C135.45 26.904 137.082 23.496 139.002 20.472C140.922 17.4 142.602 15.864 144.042 15.864H144.258L145.05 15.288C145.482 14.808 146.106 14.568 146.922 14.568C147.738 14.568 148.794 14.76 150.09 15.144C151.386 15.528 152.106 15.72 152.25 15.72C152.442 15.72 152.682 15.528 152.97 15.144C153.306 14.76 153.69 14.568 154.122 14.568C155.322 14.568 155.922 15.096 155.922 16.152C155.922 16.872 155.682 17.784 155.202 18.888C154.722 19.944 154.458 20.544 154.41 20.688C154.362 20.784 154.122 20.928 153.69 21.12C153.306 21.312 153.09 21.48 153.042 21.624C151.986 24.6 151.05 27.792 150.234 31.2C149.418 34.56 149.01 36.744 149.01 37.752C149.01 38.712 149.346 39.192 150.018 39.192C150.69 39.192 151.506 38.784 152.466 37.968C153.474 37.152 154.338 36.336 155.058 35.52C155.778 34.704 156.162 34.296 156.21 34.296C156.306 34.296 156.354 34.536 156.354 35.016C156.354 35.448 156.114 35.856 155.634 36.24ZM150.882 17.088L147.642 16.8C146.97 16.8 146.25 16.896 145.482 17.088C144.282 17.424 142.314 20.28 139.578 25.656C136.842 30.984 135.474 34.968 135.474 37.608C135.474 38.424 135.714 38.832 136.194 38.832C137.202 38.832 138.978 37.368 141.522 34.44C144.114 31.512 145.914 29.256 146.922 27.672C147.93 26.088 148.938 24.192 149.946 21.984C150.954 19.728 151.458 18.36 151.458 17.88C151.458 17.352 151.338 17.088 151.098 17.088H150.882ZM172.634 57.408C172.202 59.856 170.066 62.088 166.226 64.104C162.434 66.168 158.81 67.2 155.354 67.2C151.898 67.2 150.17 65.928 150.17 63.384C150.17 60.84 151.346 57.264 153.698 52.656C156.05 48.096 158.018 44.928 159.602 43.152C159.746 42.96 160.226 42.72 161.042 42.432C160.226 41.952 159.65 41.616 159.314 41.424C158.546 41.088 158.162 40.704 158.162 40.272C158.162 39.792 158.378 39.336 158.81 38.904C159.29 38.424 159.77 38.184 160.25 38.184H160.538C163.466 39.288 166.226 41.712 168.818 45.456C171.41 49.2 172.706 52.704 172.706 55.968C172.706 56.64 172.682 57.12 172.634 57.408ZM177.746 20.832C177.746 21.264 177.386 21.48 176.666 21.48H176.018C175.49 24.696 175.106 26.592 174.866 27.168C173.666 30.24 171.986 32.712 169.826 34.584C167.714 36.408 165.506 37.32 163.202 37.32C161.858 37.32 160.874 36.936 160.25 36.168C159.674 35.4 159.386 34.176 159.386 32.496C159.386 28.368 160.658 24.384 163.202 20.544C165.794 16.704 168.506 14.784 171.338 14.784C171.578 14.784 171.938 14.832 172.418 14.928C172.418 13.2 173.042 12.336 174.29 12.336C175.682 12.336 176.378 13.44 176.378 15.648L176.234 19.176C176.426 19.176 176.69 19.344 177.026 19.68C177.506 20.16 177.746 20.544 177.746 20.832ZM169.25 58.344V57.408C169.25 54.864 168.554 52.32 167.162 49.776C165.818 47.232 164.186 45.12 162.266 43.44C162.17 43.584 161.57 44.424 160.466 45.96C159.41 47.496 158.498 48.84 157.73 49.992C157.01 51.144 156.17 52.56 155.21 54.24C153.194 57.696 152.186 60.408 152.186 62.376C152.186 64.392 153.362 65.4 155.714 65.4C158.066 65.4 160.874 64.584 164.138 62.952C167.45 61.32 169.154 59.784 169.25 58.344ZM173.354 21.192C172.826 21.096 172.514 20.352 172.418 18.96C172.322 17.52 171.986 16.8 171.41 16.8C169.922 16.8 168.53 17.76 167.234 19.68C165.938 21.6 164.81 23.856 163.85 26.448C162.89 28.992 162.41 31.104 162.41 32.784C162.41 34.416 163.01 35.232 164.21 35.232C165.986 35.232 167.954 33.816 170.114 30.984C172.274 28.104 173.354 24.84 173.354 21.192ZM181.704 23.568L181.416 22.344C181.416 22.056 181.464 21.792 181.56 21.552C182.328 18.528 183.096 16.464 183.864 15.36C184.68 14.256 185.856 13.704 187.392 13.704C187.968 13.704 188.304 13.896 188.4 14.28C188.352 14.424 187.992 15.264 187.32 16.8C186.696 18.336 186.12 19.776 185.592 21.12C184.104 24.72 182.952 28.32 182.136 31.92C183.72 28.8 186.168 25.056 189.48 20.688C192.792 16.272 195.528 14.064 197.688 14.064C198.84 14.064 199.416 14.808 199.416 16.296C199.416 17.736 198.864 19.224 197.76 20.76C197.376 21.288 196.848 21.816 196.176 22.344C195.552 22.824 195.072 23.064 194.736 23.064C194.448 23.064 194.304 22.944 194.304 22.704C194.304 22.464 194.52 21.768 194.952 20.616C195.432 19.464 195.672 18.696 195.672 18.312C195.672 17.928 195.552 17.736 195.312 17.736C193.632 17.736 191.136 20.328 187.824 25.512C184.56 30.696 182.136 35.76 180.552 40.704C180.264 41.088 179.808 41.472 179.184 41.856C178.56 42.24 178.056 42.432 177.672 42.432C177.336 42.432 177.096 42.312 176.952 42.072C176.952 40.776 177.096 39.6 177.384 38.544C177.72 37.488 178.128 36.864 178.608 36.672C179.664 32.688 180.408 29.712 180.84 27.744L181.56 24.72C181.656 24.384 181.704 24 181.704 23.568ZM219.83 36.24C219.254 36.816 218.774 37.248 218.39 37.536C218.054 37.824 217.646 38.184 217.166 38.616C216.734 39 216.35 39.312 216.014 39.552C215.678 39.792 215.27 40.08 214.79 40.416C214.31 40.752 213.878 40.992 213.494 41.136C212.534 41.616 211.814 41.856 211.334 41.856C210.326 41.856 209.726 41.256 209.534 40.056C209.534 38.04 210.326 34.32 211.91 28.896C205.478 37.776 200.87 42.216 198.086 42.216C196.934 42.216 196.358 41.232 196.358 39.264C196.358 37.296 197.006 34.44 198.302 30.696C199.646 26.904 201.278 23.496 203.198 20.472C205.118 17.4 206.798 15.864 208.238 15.864H208.454L209.246 15.288C209.678 14.808 210.302 14.568 211.118 14.568C211.934 14.568 212.99 14.76 214.286 15.144C215.582 15.528 216.302 15.72 216.446 15.72C216.638 15.72 216.878 15.528 217.166 15.144C217.502 14.76 217.886 14.568 218.318 14.568C219.518 14.568 220.118 15.096 220.118 16.152C220.118 16.872 219.878 17.784 219.398 18.888C218.918 19.944 218.654 20.544 218.606 20.688C218.558 20.784 218.318 20.928 217.886 21.12C217.502 21.312 217.286 21.48 217.238 21.624C216.182 24.6 215.246 27.792 214.43 31.2C213.614 34.56 213.206 36.744 213.206 37.752C213.206 38.712 213.542 39.192 214.214 39.192C214.886 39.192 215.702 38.784 216.662 37.968C217.67 37.152 218.534 36.336 219.254 35.52C219.974 34.704 220.358 34.296 220.406 34.296C220.502 34.296 220.55 34.536 220.55 35.016C220.55 35.448 220.31 35.856 219.83 36.24ZM215.078 17.088L211.838 16.8C211.166 16.8 210.446 16.896 209.678 17.088C208.478 17.424 206.51 20.28 203.774 25.656C201.038 30.984 199.67 34.968 199.67 37.608C199.67 38.424 199.91 38.832 200.39 38.832C201.398 38.832 203.174 37.368 205.718 34.44C208.31 31.512 210.11 29.256 211.118 27.672C212.126 26.088 213.134 24.192 214.142 21.984C215.15 19.728 215.654 18.36 215.654 17.88C215.654 17.352 215.534 17.088 215.294 17.088H215.078ZM226.029 23.496L225.813 22.56C225.813 22.368 226.101 21.408 226.677 19.68C227.301 17.952 228.021 16.584 228.837 15.576C229.653 14.568 230.829 14.064 232.365 14.064C232.989 14.064 233.349 14.28 233.445 14.712C229.509 22.776 227.157 28.536 226.389 31.992C234.405 19.224 240.477 12.84 244.605 12.84C245.565 12.84 246.045 13.152 246.045 13.776C246.045 14.208 245.877 14.688 245.541 15.216C241.365 22.272 238.725 28.488 237.621 33.864C239.973 29.208 242.205 25.608 244.317 23.064C246.477 20.472 249.669 17.64 253.893 14.568C254.805 13.848 255.861 13.488 257.061 13.488C258.309 13.488 258.933 13.824 258.933 14.496C258.933 14.832 258.789 15.288 258.501 15.864C252.693 26.136 249.189 34.416 247.989 40.704C247.845 41.184 247.773 41.712 247.773 42.288C247.773 42.864 247.989 43.152 248.421 43.152C248.613 43.152 249.093 42.912 249.861 42.432C250.677 42 251.181 41.784 251.373 41.784C251.565 41.784 251.661 42 251.661 42.432C251.661 42.912 251.133 43.488 250.077 44.16C249.021 44.832 247.965 45.168 246.909 45.168C245.517 45.168 244.821 44.208 244.821 42.288C244.821 40.128 245.541 37.296 246.981 33.792C247.461 32.592 248.133 31.008 248.997 29.04C251.541 23.376 252.813 20.088 252.813 19.176C252.813 18.84 252.717 18.672 252.525 18.672C252.333 18.672 252.045 18.792 251.661 19.032C249.165 20.712 246.525 23.424 243.741 27.168C240.957 30.912 238.893 35.28 237.549 40.272C237.453 40.656 236.949 41.112 236.037 41.64C235.125 42.12 234.357 42.36 233.733 42.36C233.157 42.36 232.869 42.144 232.869 41.712L232.941 41.424C234.285 35.088 236.541 27.72 239.709 19.32C239.949 18.696 240.069 18.264 240.069 18.024C240.069 17.784 239.997 17.664 239.853 17.664C239.613 17.664 239.253 17.928 238.773 18.456C235.701 22.008 232.989 25.536 230.637 29.04C228.285 32.544 226.629 35.208 225.669 37.032C224.757 38.856 223.845 40.344 222.933 41.496C222.021 42.648 221.061 43.224 220.053 43.224C219.669 43.224 219.477 43.032 219.477 42.648C219.477 42.312 219.573 41.88 219.765 41.352C220.005 40.824 220.245 40.296 220.485 39.768L220.989 38.832C221.757 36.96 222.789 34.008 224.085 29.976C225.381 25.944 226.029 23.784 226.029 23.496Z" fill="url(#paint0_linear_16_127)"/>
<defs>
<linearGradient id="paint0_linear_16_127" x1="127.5" y1="-19" x2="127.5" y2="71" gradientUnits="userSpaceOnUse">
<stop stop-color="#FAB620"/>
<stop offset="1" stop-color="#B703A8"/>
</linearGradient>
</defs>
</svg>
